<?xml version="1.0" encoding="utf-8"?>
<!-- Generator: Adobe Illustrator 24.0.2, SVG Export Plug-In . SVG Version: 6.00 Build 0)  -->
<svg version="1.1" id="Layer_1" xmlns="http://www.w3.org/2000/svg" xmlns:xlink="http://www.w3.org/1999/xlink" x="0px" y="0px"
	 viewBox="0 0 24 24" style="enable-background:new 0 0 24 24;" xml:space="preserve">
<style type="text/css">
	.st0{fill:#FFFFFF;}
</style>
<path class="st0" d="M8,9c0-3.9,3.1-7,7-7s7,3.1,7,7s-3.1,7-7,7h-2v2h-2v2H9v2H2v-5.4l6.1-6.1C8,10,8,9.5,8,9z M11,14h4
	c2.8,0,5-2.2,5-5s-2.2-5-5-5s-5,2.2-5,5c0,0.5,0.1,1,0.2,1.5l0.2,0.6L4,17.4V20h3v-2h2v-2h2V14z M15,11c-1.1,0-2-0.9-2-2s0.9-2,2-2
	s2,0.9,2,2S16.1,11,15,11z"/>
</svg>
