<?xml version="1.0" encoding="utf-8"?>
<!-- Generator: Adobe Illustrator 24.0.2, SVG Export Plug-In . SVG Version: 6.00 Build 0)  -->
<svg version="1.1" id="Icon_Name" xmlns="http://www.w3.org/2000/svg" xmlns:xlink="http://www.w3.org/1999/xlink" x="0px" y="0px"
	 viewBox="0 0 192 192" style="enable-background:new 0 0 192 192;" xml:space="preserve">
<style type="text/css">
	.st0{fill:#F9F3F1;}
	.st1{fill:#DECFBC;}
	.st2{fill:#F6DD56;}
</style>
<circle class="st0" cx="96.2" cy="101.7" r="26.9"/>
<path class="st1" d="M40.3,67C34,64.4,77,25,89.9,19.6s6.7,8.3,1.2,16.7c-5.4,8.3,3.5,51.8,10.6,62.7c0,1.2-1.2,1.2-1.2,1.2
	S83.8,85.1,40.3,67z"/>
<path class="st1" d="M95.7,117c9.2,11.2,16.7,45.4,42.5,53.3c25.8,7.9,37.8-24.8,42.1-39.1c7.5-25.4-47.9-69.5-74.1-35.8
	C95.4,109.1,95.7,117,95.7,117z"/>
<path class="st1" d="M103.6,98.7c-18.3-29.6-12.9-85.5,34.6-70.4C174.8,40,189.8,42,189.8,46.6c0,5.8-45,5.4-57.9,20
	C103.6,98.7,103.6,98.7,103.6,98.7z"/>
<path class="st1" d="M82.8,178.2c-20.4,12.9-38.3,5.6-51.2-4.2c-15.4-11.7-7.1-50.8,39.6-62.5c13.8-3.4,20.2-6.9,26.4-6.9
	C91.3,116.4,103.2,165.3,82.8,178.2z"/>
<path class="st1" d="M12.4,154.9c-8.3-27.5-21.7-59.1,10.8-75s60,12.5,77.5,23.3C46.6,106.6,23.2,132.4,12.4,154.9z"/>
<path class="st2" d="M71.7,82.2C66.9,80.1,90.9,56.8,92.2,66c1.3,9.8,3.7,25.4,9.6,32.9c-1.2,1.2-1.2,1.2-1.2,1.2
	C98.4,98.5,88.4,89.7,71.7,82.2z"/>
<path class="st2" d="M95.8,117.1c1.7,3,0.1-0.1,3.4,5.9c0.5,1,2,0.8,2.3-0.2c6.2-17,11.5-29.2,27-39.6c-3.3-0.4-16,2.7-22.4,12.2
	C96.6,109.9,96.6,111.6,95.8,117.1z"/>
<path class="st2" d="M65.7,109.5c3.7-10.8,1.7-16.2-0.8-29.2c9.6,5,26.7,10,36,23C83.2,103.3,74,107,65.7,109.5z"/>
<path class="st2" d="M103.8,99c-8.3-13-9.9-29.3-9.5-37.2c10.8,0,24.6,4.6,30,13.3C115.1,85.6,103.8,99,103.8,99z"/>
<path class="st2" d="M95.1,121c-7.1-9.6-21.5-6.8-31.6-7.1c13.8-3.4,28.3-10,34.6-9.2C94.7,111.4,95.5,112.6,95.1,121z"/>
</svg>
